<svg width="150" height="150" viewBox="0 0 150 150" fill="none" xmlns="http://www.w3.org/2000/svg">
<path d="M23.0687 39.325C31.8375 29.8187 45.1062 25 62.5 25H68.75V42.6187L63.725 43.625C55.1625 45.3375 49.2062 48.7062 46.0187 53.65C44.3556 56.3133 43.4123 59.3628 43.2812 62.5H62.5C64.1576 62.5 65.7473 63.1585 66.9194 64.3306C68.0915 65.5027 68.75 67.0924 68.75 68.75V112.5C68.75 119.394 63.1437 125 56.25 125H18.75C17.0924 125 15.5027 124.342 14.3306 123.169C13.1585 121.997 12.5 120.408 12.5 118.75V87.5L12.5187 69.2563C12.4625 68.5625 11.275 52.125 23.0687 39.325ZM125 125H87.5C85.8424 125 84.2527 124.342 83.0806 123.169C81.9085 121.997 81.25 120.408 81.25 118.75V87.5L81.2687 69.2563C81.2125 68.5625 80.025 52.125 91.8187 39.325C100.587 29.8187 113.856 25 131.25 25H137.5V42.6187L132.475 43.625C123.912 45.3375 117.956 48.7062 114.769 53.65C113.106 56.3133 112.162 59.3628 112.031 62.5H131.25C132.908 62.5 134.497 63.1585 135.669 64.3306C136.842 65.5027 137.5 67.0924 137.5 68.75V112.5C137.5 119.394 131.894 125 125 125Z" fill="#488FDD" fill-opacity="0.25"/>
</svg>
