<svg width="166" height="30" viewBox="0 0 166 30" fill="none" xmlns="http://www.w3.org/2000/svg">
<path d="M30 11.6H18.55L15 0.5L11.45 11.6H0L9.25 18.45L5.75 29.5L15 22.65L24.25 29.5L20.7 18.4L30 11.6Z" fill="#FFCE31"/>
<path d="M64 11.6H52.55L49 0.5L45.45 11.6H34L43.25 18.45L39.75 29.5L49 22.65L58.25 29.5L54.7 18.4L64 11.6Z" fill="#FFCE31"/>
<path d="M98 11.6H86.55L83 0.5L79.45 11.6H68L77.25 18.45L73.75 29.5L83 22.65L92.25 29.5L88.7 18.4L98 11.6Z" fill="#FFCE31"/>
<path d="M132 11.6H120.55L117 0.5L113.45 11.6H102L111.25 18.45L107.75 29.5L117 22.65L126.25 29.5L122.7 18.4L132 11.6Z" fill="#FFCE31"/>
<path d="M166 11.6H154.55L151 0.5L147.45 11.6H136L145.25 18.45L141.75 29.5L151 22.65L160.25 29.5L156.7 18.4L166 11.6Z" fill="#FFCE31"/>
</svg>
