<svg width="80" height="80" viewBox="0 0 80 80" fill="none" xmlns="http://www.w3.org/2000/svg">
<path d="M43.7799 34.07C45.3527 34.07 46.861 34.6947 47.9731 35.8068C49.0852 36.9189 49.7099 38.4272 49.7099 40C49.7099 41.5727 49.0852 43.081 47.9731 44.1931C46.861 45.3052 45.3527 45.93 43.7799 45.93M43.7699 23.16C48.2362 23.16 52.5195 24.9342 55.6776 28.0923C58.8357 31.2504 60.6099 35.5337 60.6099 40C60.6099 44.4662 58.8357 48.7495 55.6776 51.9076C52.5195 55.0658 48.2362 56.84 43.7699 56.84V23.16ZM43.7699 51.22C46.7457 51.22 49.5995 50.0379 51.7037 47.9337C53.8078 45.8296 54.9899 42.9757 54.9899 40C54.9899 37.0242 53.8078 34.1704 51.7037 32.0662C49.5995 29.9621 46.7457 28.78 43.7699 28.78V51.22ZM36.9999 23.51C37.7699 23.4 38.1599 24.22 38.1599 25.97V54C38.1599 56.81 37.1599 57.21 35.1599 55.24L22.7199 42.81C22.0019 42.0506 21.6018 41.0451 21.6018 40C21.6018 38.9549 22.0019 37.9494 22.7199 37.19L35.1799 24.73C35.6572 24.1573 36.2889 23.7339 36.9999 23.51V23.51Z" stroke="#3781E3" stroke-width="2" stroke-linecap="round" stroke-linejoin="round"/>
<circle cx="40" cy="40" r="40" fill="#3781E3" fill-opacity="0.15"/>
</svg>
