<svg width="80" height="80" viewBox="0 0 80 80" fill="none" xmlns="http://www.w3.org/2000/svg">
<path d="M46.3834 30.2033C46.1071 30.2033 45.8421 30.313 45.6468 30.5084C45.4514 30.7037 45.3417 30.9687 45.3417 31.245C45.3417 31.5212 45.4514 31.7862 45.6468 31.9815C45.8421 32.1769 46.1071 32.2866 46.3834 32.2866C47.4417 32.2866 48.665 33.3141 48.7959 34.7475C48.8209 35.0226 48.9543 35.2766 49.1666 35.4534C49.3789 35.6302 49.6528 35.7155 49.9279 35.6904C50.2031 35.6653 50.457 35.5319 50.6339 35.3196C50.8107 35.1073 50.8959 34.8335 50.8709 34.5583C50.6509 32.1583 48.6234 30.2033 46.3825 30.2033H46.3834ZM37.725 26.8566C35.785 25.0533 33.4484 24.7908 31.4075 25.2375C29.4017 25.6758 27.5992 26.8083 26.5175 27.9541C25.1842 29.365 23.9317 31.1733 23.8259 33.7858V33.7925C23.7809 35.0783 23.9484 36.9775 24.9725 38.3883L25.0875 38.5483C26.1167 39.9733 26.725 40.8166 27.0267 41.6616L27.0292 41.6683C27.3742 42.6133 27.3834 43.5541 27.3959 44.8891L27.3992 45.2475C27.4175 47.0975 27.945 50.0675 29.3609 52.2358C30.0442 53.2841 30.9817 54.2133 32.2359 54.6791L32.2842 54.6975L32.3342 54.71C33.3317 54.9733 34.2759 54.9183 35.04 54.3533C35.7534 53.8258 36.1 53.0016 36.3009 52.235C36.505 51.4508 36.6034 50.5325 36.6809 49.6233C36.7034 49.3566 36.7242 49.0916 36.745 48.8258C36.7984 48.1508 36.8509 47.4741 36.9334 46.7908C36.9906 46.2932 37.0693 45.7983 37.1692 45.3075C37.4609 43.9133 37.7959 43.1058 38.1184 42.6266C38.4034 42.2016 38.6909 42.0158 39.01 41.9008C39.9559 41.6616 40.555 41.785 40.9617 42.0158C41.3984 42.2633 41.7775 42.7258 42.0925 43.445C42.74 44.925 42.9242 47.0158 43.0784 48.9041V48.9066C43.2367 50.785 43.6317 52.4991 44.3717 53.6033C44.7525 54.1716 45.2917 54.6775 46.0275 54.855C46.7792 55.0366 47.5167 54.8241 48.17 54.405L48.1709 54.4041C50.5625 52.8666 51.9434 49.5816 52.3209 45.3958C52.4792 43.6225 52.6867 42.6833 53.0125 41.8591C53.2767 41.1925 53.6184 40.5908 54.14 39.6741L54.1417 39.6725C54.3009 39.3916 54.4784 39.0808 54.675 38.73C55.2117 37.7766 56.0759 36.0566 56.1725 34.0491C56.2725 31.9675 55.54 29.6725 53.07 27.6916C50.7117 25.7808 48.52 25.0858 46.5642 25.19C44.6242 25.2933 43.0709 26.1741 41.9617 27.13L41.9359 27.1525L41.9117 27.1758C40.8225 28.2441 40.3109 28.4466 39.9675 28.4316C39.5842 28.415 38.9784 28.1166 37.755 26.8858L37.7409 26.8708L37.725 26.8566ZM28.0317 29.385C28.8417 28.5275 30.2767 27.6175 31.8525 27.2725C33.3875 26.9366 34.9692 27.1475 36.2925 28.3691C37.4725 29.555 38.5959 30.4575 39.8767 30.5133C41.1942 30.5716 42.285 29.725 43.345 28.6883C44.2159 27.945 45.3367 27.3416 46.675 27.27C48.0084 27.1991 49.71 27.65 51.76 29.3116L51.765 29.3158C53.7009 30.8675 54.16 32.5141 54.0909 33.9491C54.0192 35.4575 53.355 36.8275 52.8584 37.7075L52.8567 37.7108C52.69 38.0108 52.53 38.2916 52.3784 38.5566C51.835 39.51 51.3984 40.2775 51.0759 41.0925C50.6442 42.1825 50.4134 43.3475 50.245 45.2091C49.8884 49.1741 48.62 51.6391 47.045 52.6508C46.7117 52.865 46.5567 52.8391 46.5167 52.83C46.4609 52.8166 46.3092 52.7525 46.1025 52.4441C45.6667 51.7941 45.305 50.5216 45.1542 48.7333V48.7325L45.1475 48.6533C45.0025 46.8733 44.8042 44.445 44.0009 42.6091C43.5834 41.6558 42.9575 40.7525 41.99 40.2033C40.9984 39.6416 39.8059 39.54 38.4442 39.895L38.4075 39.905L38.3717 39.9175C37.63 40.17 36.9517 40.6275 36.3884 41.465C35.8525 42.2625 35.4467 43.3675 35.13 44.8816C35.0175 45.4312 34.9288 45.9853 34.8642 46.5425C34.7775 47.2725 34.7192 48.0141 34.6642 48.7041C34.645 48.96 34.625 49.2091 34.605 49.4466C34.5275 50.3575 34.44 51.115 34.285 51.7083C34.125 52.32 33.9384 52.5766 33.8017 52.6775C33.7184 52.7391 33.505 52.855 32.915 52.7083C32.2234 52.4375 31.6192 51.885 31.105 51.0975C29.9775 49.37 29.4984 46.8325 29.4825 45.2258V45.2241L29.4792 44.8216C29.4709 43.56 29.4609 42.2566 28.9875 40.9575C28.5817 39.8241 27.8017 38.745 26.88 37.4716L26.6609 37.1683L26.6592 37.1658C26.0509 36.3283 25.8675 35.0133 25.9067 33.8666C25.985 31.965 26.8709 30.6141 28.0317 29.385ZM39.01 41.9008L38.9709 41.9108L39.0442 41.8891C39.0328 41.8929 39.0214 41.8968 39.01 41.9008Z" fill="#3781E3"/>
<circle cx="40" cy="40" r="40" fill="#3781E3" fill-opacity="0.15"/>
</svg>
