<svg width="80" height="80" viewBox="0 0 80 80" fill="none" xmlns="http://www.w3.org/2000/svg">
<path d="M31.4688 35.6875C31.8581 35.6875 32.2388 35.803 32.5625 36.0193C32.8863 36.2356 33.1386 36.5431 33.2876 36.9028C33.4366 37.2626 33.4756 37.6584 33.3997 38.0403C33.3237 38.4222 33.1362 38.773 32.8609 39.0484C32.5855 39.3237 32.2347 39.5112 31.8528 39.5872C31.4709 39.6631 31.0751 39.6241 30.7153 39.4751C30.3556 39.3261 30.0481 39.0738 29.8318 38.75C29.6155 38.4263 29.5 38.0456 29.5 37.6562C29.5 37.1341 29.7074 36.6333 30.0766 36.2641C30.4458 35.8949 30.9466 35.6875 31.4688 35.6875ZM31.4688 33.0625C30.5602 33.0625 29.672 33.3319 28.9166 33.8367C28.1612 34.3415 27.5724 35.0589 27.2247 35.8983C26.877 36.7377 26.786 37.6613 26.9633 38.5524C27.1405 39.4435 27.578 40.2621 28.2205 40.9045C28.8629 41.547 29.6815 41.9845 30.5726 42.1617C31.4637 42.339 32.3873 42.248 33.2267 41.9003C34.0661 41.5526 34.7835 40.9638 35.2883 40.2084C35.7931 39.453 36.0625 38.5648 36.0625 37.6562C36.0625 36.4379 35.5785 35.2695 34.717 34.408C33.8555 33.5465 32.6871 33.0625 31.4688 33.0625V33.0625Z" fill="#3781E3"/>
<path d="M51.8125 34.375H41.3125C40.6163 34.375 39.9486 34.6516 39.4563 35.1439C38.9641 35.6361 38.6875 36.3038 38.6875 37V44.875H24.25V29.9125L40 21.4338L56.4456 30.28L57.6794 27.97L40.6169 18.7825C40.427 18.6814 40.2151 18.6285 40 18.6285C39.7849 18.6285 39.573 18.6814 39.3831 18.7825L22.3206 27.97C22.111 28.0816 21.9357 28.248 21.8132 28.4514C21.6907 28.6548 21.6256 28.8876 21.625 29.125V55.375H24.25V47.5H55.75V55.375H58.375V40.9375C58.375 39.197 57.6836 37.5278 56.4529 36.2971C55.2222 35.0664 53.553 34.375 51.8125 34.375ZM41.3125 44.875V37H51.8125C52.8568 37 53.8583 37.4149 54.5967 38.1533C55.3352 38.8917 55.75 39.8932 55.75 40.9375V44.875H41.3125Z" fill="#3781E3"/>
<circle cx="40" cy="40" r="40" fill="#3781E3" fill-opacity="0.15"/>
</svg>
