<svg width="80" height="80" viewBox="0 0 80 80" fill="none" xmlns="http://www.w3.org/2000/svg">
<path d="M35.56 22.08L44 21.48V34H52.78C53.7608 33.9613 54.7395 34.1172 55.6597 34.4589C56.5798 34.8005 57.4232 35.3211 58.141 35.9906C58.8588 36.6601 59.4369 37.4651 59.8418 38.3593C60.2467 39.2534 60.4704 40.2189 60.5 41.2V41.68C60.5291 43.0814 60.1263 44.4578 59.3463 45.6224C58.5663 46.787 57.4469 47.6834 56.14 48.19H50.36C50.36 48.19 54.26 46.47 54.26 43.73C54.26 41.48 52.47 39.73 49.19 39.6C45.91 39.47 35.56 39 35.56 39V22.08ZM23.89 37.43L29.15 37.72C28.5316 38.7453 28.1395 39.8909 28 41.08C28 44.81 33.75 48.19 39.7 48.19C41.1178 48.2508 42.5373 48.1197 43.92 47.8L44.66 58.52C44.66 58.52 21.5 55.88 21.5 43.57C21.5 38.87 23.89 37.43 23.89 37.43V37.43Z" stroke="#3781E3" stroke-width="2" stroke-linecap="round" stroke-linejoin="round"/>
<circle cx="40" cy="40" r="40" fill="#3781E3" fill-opacity="0.15"/>
</svg>
